# xmcd
#
# Track frame offsets:
#	150
#	40886
#	93452
#	115070
#	142828
#	178275
#	205395
#	239435
#	254187
#	303900
#	334860
#
# Disc length: 4726 seconds
#
# Revision: 5
# Processed by: cddbd v1.5.2PL0 Copyright (c) Steve Scherf et al.
# Submitted via: EZCDAudioConverter 1.3.4.1
#
DISCID=a212740b
DTITLE=Traffic - Gold 2/2
DYEAR=2005
DGENRE=
TTITLE0=Gimme Some Lovin' [Live]
TTITLE1=Low Spark Of High-Heeled Boys
TTITLE2=Light Up Or Leave Me Alone
TTITLE3=Rock And Roll Stew
TTITLE4=Rainmaker
TTITLE5=Shoot Out At The Fantasy Factory
TTITLE6=(Sometimes I Feel So) Uninspired
TTITLE7=Something New
TTITLE8=Dream Gerrard
TTITLE9=Walking In The Wind
TTITLE10=When The Eagle Flies
EXTD=
EXTT0=
EXTT1=
EXTT2=
EXTT3=
EXTT4=
EXTT5=
EXTT6=
EXTT7=
EXTT8=
EXTT9=
EXTT10=
PLAYORDER=
